<?xml version="1.0" encoding="UTF-8"?>
<svg id="Layer_1" xmlns="http://www.w3.org/2000/svg" version="1.1" viewBox="0 0 110 135">
  <!-- Generator: Adobe Illustrator 29.5.1, SVG Export Plug-In . SVG Version: 2.1.0 Build 141)  -->
  <defs>
    <style>
      .st0 {
        fill: #fff;
      }
    </style>
  </defs>
  <path class="st0" d="M24.57,14h-13.57c-1.1,0-2,.9-2,2v13.57c0,1.1.9,2,2,2h13.57c1.1,0,2-.9,2-2v-13.57c0-1.1-.9-2-2-2ZM24.57,29.57h-13.57v-13.57h13.57v13.57ZM80.39,14h-13.57c-1.1,0-2,.9-2,2v13.57c0,1.1.9,2,2,2h13.57c1.1,0,2-.9,2-2v-13.57c0-1.1-.9-2-2-2ZM80.39,29.57h-13.57v-13.57h13.57v13.57h0ZM61.78,14h-13.57c-1.1,0-2,.9-2,2v13.57c0,1.1.9,2,2,2h13.57c1.1,0,2-.9,2-2v-13.57c0-1.1-.9-2-2-2ZM61.78,29.57h-13.57v-13.57h13.57v13.57ZM43.18,14h-13.57c-1.1,0-2,.9-2,2v13.57c0,1.1.9,2,2,2h13.57c1.1,0,2-.9,2-2v-13.57c0-1.1-.9-2-2-2ZM43.18,29.57h-13.57v-13.57h13.57v13.57ZM99,14h-13.57c-1.1,0-2,.9-2,2v13.57c0,1.1.9,2,2,2h13.57c1.1,0,2-.9,2-2v-13.57c0-1.1-.9-2-2-2ZM99,29.57h-13.57v-13.57h13.57v13.57ZM24.57,32.61h-13.57c-1.1,0-2,.9-2,2v13.57c0,1.1.9,2,2,2h13.57c1.1,0,2-.9,2-2v-13.57c0-1.1-.9-2-2-2ZM24.57,48.18h-13.57v-13.57h13.57v13.57ZM80.39,32.61h-13.57c-1.1,0-2,.9-2,2v13.57c0,1.1.9,2,2,2h13.57c1.1,0,2-.9,2-2v-13.57c0-1.1-.9-2-2-2ZM80.39,48.18h-13.57v-13.57h13.57v13.57ZM61.78,32.61h-13.57c-1.1,0-2,.9-2,2v13.57c0,1.1.9,2,2,2h13.57c1.1,0,2-.9,2-2v-13.57c0-1.1-.9-2-2-2ZM61.78,48.18h-13.57v-13.57h13.57v13.57ZM43.18,32.61h-13.57c-1.1,0-2,.9-2,2v13.57c0,1.1.9,2,2,2h13.57c1.1,0,2-.9,2-2v-13.57c0-1.1-.9-2-2-2ZM43.18,48.18h-13.57v-13.57h13.57v13.57ZM99,32.61h-13.57c-1.1,0-2,.9-2,2v13.57c0,1.1.9,2,2,2h13.57c1.1,0,2-.9,2-2v-13.57c0-1.1-.9-2-2-2ZM99,48.18h-13.57v-13.57h13.57v13.57ZM24.57,51.21h-13.57c-1.1,0-2,.9-2,2v13.57c0,1.1.9,2,2,2h13.57c1.1,0,2-.9,2-2v-13.57c0-1.1-.9-2-2-2ZM24.57,66.78h-13.57v-13.57h13.57v13.57ZM80.39,51.21h-13.57c-1.1,0-2,.9-2,2v13.57c0,1.1.9,2,2,2h13.57c1.1,0,2-.9,2-2v-13.57c0-1.1-.9-2-2-2ZM80.39,66.78h-13.57v-13.57h13.57v13.57ZM61.78,51.21h-13.57c-1.1,0-2,.9-2,2v13.57c0,1.1.9,2,2,2h13.57c1.1,0,2-.9,2-2v-13.57c0-1.1-.9-2-2-2ZM61.78,66.78h-13.57v-13.57h13.57v13.57ZM43.18,51.21h-13.57c-1.1,0-2,.9-2,2v13.57c0,1.1.9,2,2,2h13.57c1.1,0,2-.9,2-2v-13.57c0-1.1-.9-2-2-2ZM43.18,66.78h-13.57v-13.57h13.57v13.57ZM99,51.21h-13.57c-1.1,0-2,.9-2,2v13.57c0,1.1.9,2,2,2h13.57c1.1,0,2-.9,2-2v-13.57c0-1.1-.9-2-2-2ZM99,66.78h-13.57v-13.57h13.57v13.57ZM24.57,69.82h-13.57c-1.1,0-2,.9-2,2v13.57c0,1.1.9,2,2,2h13.57c1.1,0,2-.9,2-2v-13.57c0-1.1-.9-2-2-2ZM24.57,85.39h-13.57v-13.57h13.57v13.57ZM80.39,69.82h-13.57c-1.1,0-2,.9-2,2v13.57c0,1.1.9,2,2,2h13.57c1.1,0,2-.9,2-2v-13.57c0-1.1-.9-2-2-2ZM80.39,85.39h-13.57v-13.57h13.57v13.57ZM61.78,69.82h-13.57c-1.1,0-2,.9-2,2v13.57c0,1.1.9,2,2,2h13.57c1.1,0,2-.9,2-2v-13.57c0-1.1-.9-2-2-2ZM61.78,85.39h-13.57v-13.57h13.57v13.57ZM43.18,69.82h-13.57c-1.1,0-2,.9-2,2v13.57c0,1.1.9,2,2,2h13.57c1.1,0,2-.9,2-2v-13.57c0-1.1-.9-2-2-2ZM43.18,85.39h-13.57v-13.57h13.57v13.57ZM99,69.82h-13.57c-1.1,0-2,.9-2,2v13.57c0,1.1.9,2,2,2h13.57c1.1,0,2-.9,2-2v-13.57c0-1.1-.9-2-2-2ZM99,85.39h-13.57v-13.57h13.57v13.57ZM24.57,88.43h-13.57c-1.1,0-2,.9-2,2v13.57c0,1.1.9,2,2,2h13.57c1.1,0,2-.9,2-2v-13.57c0-1.1-.9-2-2-2ZM24.57,104h-13.57v-13.57h13.57v13.57ZM80.39,88.43h-13.57c-1.1,0-2,.9-2,2v13.57c0,1.1.9,2,2,2h13.57c1.1,0,2-.9,2-2v-13.57c0-1.1-.9-2-2-2ZM80.39,104h-13.57v-13.57h13.57v13.57ZM61.78,88.43h-13.57c-1.1,0-2,.9-2,2v13.57c0,1.1.9,2,2,2h13.57c1.1,0,2-.9,2-2v-13.57c0-1.1-.9-2-2-2ZM61.78,104h-13.57v-13.57h13.57v13.57ZM43.18,88.43h-13.57c-1.1,0-2,.9-2,2v13.57c0,1.1.9,2,2,2h13.57c1.1,0,2-.9,2-2v-13.57c0-1.1-.9-2-2-2ZM43.18,104h-13.57v-13.57h13.57v13.57ZM99,88.43h-13.57c-1.1,0-2,.9-2,2v13.57c0,1.1.9,2,2,2h13.57c1.1,0,2-.9,2-2v-13.57c0-1.1-.9-2-2-2ZM99,104h-13.57v-13.57h13.57v13.57Z"/>
</svg>