<svg xmlns="http://www.w3.org/2000/svg" xmlns:xlink="http://www.w3.org/1999/xlink" version="1.1" x="0px" y="0px" viewBox="0 0 100 125" enable-background="new 0 0 100 100" xml:space="preserve"><path d="M1.271,50L50,78.134L98.729,50L50,21.866L1.271,50z M58.676,30.339c-0.539,0.311-1.076,0.62-1.621,0.929  c-0.926-0.53-1.85-1.063-2.773-1.593c0.541-0.312,1.088-0.624,1.627-0.934L58.676,30.339z M62.197,32.372  c-0.541,0.312-1.078,0.62-1.615,0.921c-0.814-0.466-1.627-0.936-2.441-1.402c-0.111-0.063-0.221-0.126-0.33-0.189  c0.543-0.31,1.08-0.619,1.617-0.929L62.197,32.372z M65.709,34.4c-0.543,0.311-1.088,0.61-1.631,0.902  c-0.914-0.525-1.828-1.051-2.74-1.575c0.533-0.303,1.07-0.61,1.609-0.923L65.709,34.4z M69.23,36.434  c-0.531,0.303-1.072,0.604-1.623,0.896c-0.922-0.531-1.844-1.059-2.766-1.589c0.545-0.299,1.084-0.6,1.617-0.907L69.23,36.434z   M72.748,38.464c-0.529,0.303-1.07,0.604-1.619,0.896c-0.521-0.302-1.043-0.606-1.564-0.907c-0.395-0.229-0.793-0.455-1.189-0.683  c0.547-0.296,1.082-0.599,1.609-0.902L72.748,38.464z M76.266,40.494c-0.533,0.305-1.074,0.608-1.625,0.905  c-0.916-0.533-1.832-1.066-2.75-1.597c0.545-0.296,1.084-0.6,1.609-0.904L76.266,40.494z M79.785,42.527  c-0.539,0.312-1.078,0.619-1.613,0.92c-0.926-0.537-1.85-1.073-2.773-1.609c0.555-0.303,1.094-0.609,1.619-0.91L79.785,42.527z   M83.299,44.555c-0.539,0.31-1.076,0.619-1.621,0.928c-0.262-0.152-0.523-0.303-0.783-0.455c-0.658-0.382-1.314-0.762-1.971-1.145  c0.535-0.303,1.072-0.611,1.611-0.924L83.299,44.555z M86.814,46.585c-0.541,0.312-1.084,0.623-1.627,0.935  c-0.92-0.534-1.838-1.066-2.758-1.6c0.545-0.311,1.082-0.621,1.621-0.931L86.814,46.585z M15.951,44.989  c0.539,0.311,1.076,0.621,1.619,0.931c-0.918,0.534-1.838,1.066-2.756,1.6c-0.543-0.313-1.088-0.624-1.627-0.935L15.951,44.989z   M22.984,40.927c0.531,0.305,1.07,0.609,1.619,0.91c-0.924,0.537-1.85,1.072-2.773,1.61c-0.537-0.301-1.074-0.609-1.615-0.92  L22.984,40.927z M33.539,34.833c0.535,0.307,1.074,0.607,1.619,0.907c-0.922,0.53-1.844,1.058-2.766,1.589  c-0.551-0.291-1.092-0.592-1.623-0.896L33.539,34.833z M40.574,30.772c0.537,0.31,1.074,0.62,1.617,0.929  c-0.119,0.068-0.238,0.137-0.357,0.206c-0.805,0.461-1.609,0.925-2.414,1.387c-0.537-0.301-1.076-0.609-1.617-0.921L40.574,30.772z   M57.768,32.542c0.682,0.391,1.363,0.784,2.045,1.175c-0.904,0.496-1.816,0.966-2.74,1.403c-0.811-0.43-1.625-0.858-2.432-1.295  c-0.109-0.06-0.219-0.124-0.33-0.184c0.92-0.496,1.834-1,2.738-1.512C57.289,32.267,57.527,32.404,57.768,32.542z M57.025,67.818  c-0.912-0.538-1.846-1.101-2.787-1.683c0.1-0.061,0.199-0.12,0.297-0.181c0.838-0.514,1.668-1.036,2.502-1.557  c0.914,0.619,1.844,1.217,2.785,1.797c-0.766,0.445-1.533,0.888-2.299,1.334C57.357,67.626,57.191,67.723,57.025,67.818z   M42.545,67.568c-0.789-0.459-1.578-0.916-2.367-1.375c0.941-0.58,1.871-1.176,2.785-1.795c0.832,0.52,1.664,1.041,2.502,1.556  c0.1,0.062,0.197,0.121,0.297,0.182c-0.941,0.582-1.875,1.145-2.785,1.683C42.832,67.734,42.688,67.652,42.545,67.568z   M42.953,32.129c0.904,0.511,1.816,1.016,2.738,1.512c-0.109,0.06-0.219,0.124-0.33,0.183c-0.809,0.437-1.621,0.865-2.432,1.296  c-0.926-0.438-1.836-0.908-2.742-1.404c0.672-0.386,1.346-0.773,2.018-1.159C42.455,32.415,42.703,32.272,42.953,32.129z   M54.283,34.485c0.645,0.348,1.291,0.688,1.938,1.032c-0.871,0.385-1.76,0.733-2.678,1.039c-0.76-0.319-1.52-0.632-2.271-0.969  c-0.135-0.061-0.266-0.13-0.4-0.191c0.891-0.432,1.771-0.876,2.645-1.337C53.771,34.198,54.027,34.346,54.283,34.485z M53.52,65.689  c-0.955-0.6-1.91-1.215-2.854-1.85c0.084-0.058,0.172-0.113,0.254-0.172c0.873-0.609,1.736-1.241,2.59-1.872  c0.93,0.751,1.881,1.461,2.854,2.14c-0.74,0.461-1.477,0.924-2.221,1.381C53.936,65.443,53.729,65.563,53.52,65.689z M45.857,65.314  c-0.744-0.455-1.48-0.918-2.221-1.381c0.973-0.678,1.926-1.389,2.854-2.138c0.855,0.63,1.715,1.261,2.588,1.869  c0.084,0.06,0.172,0.116,0.256,0.175c-0.943,0.635-1.9,1.253-2.857,1.854C46.271,65.566,46.064,65.441,45.857,65.314z   M46.486,34.059c0.873,0.46,1.754,0.905,2.645,1.336c-0.137,0.062-0.268,0.132-0.404,0.192c-0.75,0.337-1.51,0.65-2.27,0.969  c-0.916-0.306-1.807-0.654-2.676-1.039c0.646-0.344,1.293-0.684,1.938-1.032C45.977,34.346,46.23,34.198,46.486,34.059z   M54.549,37.801c0.324,0.136,0.654,0.276,0.982,0.414c-0.672,0.035-1.35,0.024-2.098-0.009c-0.551-0.121-1.109-0.235-1.684-0.349  c0.113-0.028,0.215-0.047,0.328-0.078c0.488-0.127,0.963-0.271,1.432-0.421C53.857,37.503,54.201,37.656,54.549,37.801z   M67.703,52.201c-0.932-0.93-1.893-1.987-2.932-3.208c0.402-0.084,0.811-0.167,1.234-0.25c0.484-0.096,0.984-0.197,1.49-0.304  c0.908,0.864,1.83,1.726,2.789,2.542c0.035,0.029,0.072,0.057,0.107,0.086c-0.205,0.084-0.408,0.176-0.613,0.262  C69.092,51.615,68.398,51.904,67.703,52.201z M50,63.386c-0.162-0.112-0.33-0.223-0.492-0.337c-0.813-0.566-1.617-1.154-2.416-1.742  c0.068-0.059,0.141-0.113,0.209-0.172c0.928-0.787,1.82-1.619,2.699-2.456c0.879,0.835,1.77,1.667,2.699,2.454  c0.07,0.059,0.143,0.114,0.211,0.172c-0.801,0.59-1.605,1.178-2.42,1.746C50.33,63.165,50.164,63.273,50,63.386z M30.221,51.328  c-0.205-0.085-0.408-0.176-0.613-0.262c0.035-0.029,0.07-0.057,0.105-0.084c0.961-0.815,1.883-1.679,2.791-2.542  c0.508,0.107,1.006,0.207,1.49,0.303c0.424,0.083,0.834,0.166,1.236,0.25c-1.039,1.221-2.002,2.278-2.932,3.208  C31.604,51.904,30.908,51.615,30.221,51.328z M46.49,37.357c0.471,0.151,0.947,0.294,1.434,0.421  c0.115,0.03,0.215,0.049,0.328,0.078c-0.574,0.113-1.131,0.228-1.682,0.349c-0.75,0.033-1.426,0.043-2.1,0.008  c0.328-0.138,0.66-0.278,0.984-0.415C45.803,37.655,46.145,37.502,46.49,37.357z M58.531,40.868  c-0.459-0.104-0.922-0.198-1.393-0.272c-0.33-0.263-0.66-0.504-0.99-0.722c0.256,0.061,0.512,0.121,0.771,0.178  C57.443,40.277,57.982,40.555,58.531,40.868z M63.094,44.292c-0.248-0.01-0.502-0.018-0.742-0.028  c-0.549-0.024-1.072-0.045-1.582-0.055c-0.758-0.867-1.547-1.719-2.383-2.524c-0.041-0.039-0.08-0.07-0.121-0.109  c0.344,0.077,0.688,0.158,1.039,0.243c0.354,0.085,0.715,0.172,1.08,0.253C61.324,42.764,62.221,43.517,63.094,44.292z   M64.225,48.345c-0.371-0.444-0.738-0.891-1.105-1.337c-0.553-0.674-1.117-1.354-1.691-2.031c0.291,0.011,0.584,0.023,0.891,0.037  c0.506,0.022,1.057,0.043,1.635,0.057c0.783,0.724,1.555,1.459,2.309,2.187c0.188,0.182,0.385,0.367,0.576,0.551  c-0.326,0.066-0.658,0.136-0.977,0.199C65.303,48.118,64.762,48.229,64.225,48.345z M34.141,48.007  c-0.318-0.063-0.65-0.133-0.979-0.199c0.191-0.183,0.387-0.367,0.574-0.548c0.756-0.729,1.527-1.464,2.313-2.188  c0.578-0.014,1.129-0.036,1.635-0.059c0.307-0.014,0.602-0.024,0.891-0.036c-0.568,0.672-1.131,1.347-1.68,2.016  c-0.371,0.452-0.744,0.903-1.117,1.353C35.238,48.229,34.697,48.118,34.141,48.007z M39.619,42.071  c0.365-0.081,0.725-0.167,1.078-0.252c0.35-0.084,0.695-0.166,1.039-0.243c-0.027,0.026-0.055,0.048-0.084,0.075  c-0.85,0.815-1.65,1.679-2.422,2.56c-0.51,0.009-1.033,0.03-1.58,0.054c-0.242,0.011-0.496,0.019-0.742,0.028  C37.781,43.517,38.678,42.764,39.619,42.071z M43.082,40.052c0.262-0.058,0.516-0.117,0.771-0.178  c-0.33,0.218-0.66,0.458-0.988,0.721c-0.471,0.074-0.934,0.168-1.391,0.272C42.021,40.554,42.559,40.276,43.082,40.052z   M57.865,42.226c0.66,0.634,1.287,1.306,1.898,1.988c-0.877,0.028-1.725,0.135-2.584,0.384c-0.643-0.828-1.301-1.646-2.004-2.425  c-0.287-0.316-0.568-0.616-0.85-0.905c0.07-0.009,0.133-0.026,0.205-0.033c0.795-0.077,1.553-0.03,2.303,0.076  C57.176,41.591,57.52,41.892,57.865,42.226z M43.168,41.308c0.748-0.107,1.508-0.153,2.303-0.074  c0.07,0.007,0.135,0.024,0.205,0.033c-0.281,0.29-0.563,0.588-0.848,0.904c-0.705,0.78-1.365,1.598-2.006,2.427  c-0.859-0.249-1.709-0.355-2.584-0.384c0.623-0.694,1.26-1.377,1.934-2.022C42.506,41.871,42.838,41.58,43.168,41.308z   M46.873,39.259c0.488-0.062,0.986-0.084,1.49-0.072c-0.744,0.37-1.396,0.859-2.018,1.43c-0.258-0.052-0.52-0.101-0.803-0.129  c-0.408-0.041-0.809-0.045-1.201-0.033C45.162,39.923,45.992,39.522,46.873,39.259z M52.793,40.846  c-1.084,0.36-1.969,0.944-2.793,1.678c-0.822-0.734-1.709-1.319-2.791-1.678c0.814-0.688,1.693-1.195,2.791-1.465  C51.1,39.651,51.979,40.159,52.793,40.846z M45.385,42.675c0.402-0.446,0.789-0.86,1.178-1.239c1.139,0.295,2.041,0.854,2.889,1.601  c-0.369,0.366-0.734,0.753-1.107,1.166c-0.678,0.75-1.313,1.536-1.932,2.332c-1.008-0.795-1.938-1.328-2.838-1.68  C44.156,44.109,44.752,43.375,45.385,42.675z M48.9,44.706c0.377-0.416,0.738-0.801,1.1-1.159c0.361,0.358,0.725,0.743,1.1,1.16  c0.668,0.739,1.297,1.517,1.91,2.305c-0.217,0.187-0.436,0.381-0.658,0.592c-0.826,0.779-1.602,1.607-2.352,2.451  c-0.75-0.844-1.523-1.672-2.35-2.452c-0.225-0.211-0.443-0.406-0.658-0.592C47.605,46.222,48.232,45.445,48.9,44.706z   M51.656,44.203c-0.373-0.413-0.738-0.801-1.107-1.167c0.848-0.748,1.75-1.306,2.891-1.601c0.389,0.379,0.775,0.793,1.178,1.24  c0.631,0.699,1.229,1.434,1.809,2.178c-0.9,0.352-1.83,0.886-2.838,1.682C52.971,45.739,52.334,44.954,51.656,44.203z   M55.662,40.457c-0.396-0.013-0.795-0.009-1.205,0.032c-0.281,0.028-0.543,0.077-0.801,0.129c-0.623-0.571-1.275-1.06-2.02-1.431  c0.502-0.012,0.996,0.01,1.479,0.071C54,39.52,54.838,39.921,55.662,40.457z M37.475,47.468c0.684-0.834,1.383-1.681,2.104-2.514  c0.959-0.003,1.854,0.06,2.748,0.284c-0.707,0.938-1.389,1.891-2.057,2.828c-0.314,0.441-0.633,0.887-0.955,1.333  c-0.916-0.371-1.814-0.644-2.721-0.865C36.889,48.179,37.182,47.824,37.475,47.468z M40.881,48.501  c0.717-1.004,1.445-2.026,2.209-3.029c0.906,0.326,1.838,0.843,2.861,1.652c-0.75,0.988-1.465,1.991-2.168,2.977  c-0.301,0.42-0.602,0.844-0.908,1.267c-1.002-0.706-1.945-1.245-2.855-1.664C40.309,49.302,40.596,48.9,40.881,48.501z   M44.395,50.537c0.693-0.973,1.4-1.962,2.135-2.935c0.199,0.172,0.4,0.352,0.605,0.546c0.83,0.782,1.609,1.617,2.365,2.471  c-0.76,0.879-1.496,1.771-2.217,2.65c-0.271,0.334-0.559,0.672-0.836,1.008c-0.949-0.86-1.934-1.692-2.965-2.469  C43.789,51.384,44.094,50.958,44.395,50.537z M47.863,53.746c0.695-0.85,1.406-1.709,2.137-2.557  c0.73,0.847,1.441,1.707,2.137,2.556c0.283,0.346,0.58,0.694,0.867,1.044c-0.744,0.691-1.477,1.389-2.193,2.081  c-0.266,0.256-0.541,0.515-0.809,0.772c-0.271-0.261-0.549-0.521-0.814-0.778c-0.715-0.69-1.447-1.388-2.189-2.076  C47.285,54.439,47.582,54.091,47.863,53.746z M52.717,53.271c-0.721-0.881-1.455-1.772-2.217-2.651  c0.756-0.854,1.537-1.689,2.367-2.471c0.205-0.194,0.406-0.374,0.605-0.546c0.734,0.972,1.439,1.959,2.133,2.932  c0.303,0.423,0.607,0.85,0.916,1.275c-1.033,0.776-2.018,1.607-2.967,2.467C53.277,53.941,52.99,53.604,52.717,53.271z   M56.217,50.099c-0.703-0.985-1.418-1.987-2.166-2.975c1.021-0.808,1.953-1.327,2.859-1.652c0.764,1.004,1.494,2.026,2.211,3.031  c0.285,0.398,0.572,0.8,0.861,1.202c-0.912,0.42-1.854,0.958-2.855,1.666C56.82,50.943,56.518,50.52,56.217,50.099z M59.732,48.067  c-0.67-0.938-1.352-1.889-2.059-2.83c0.895-0.225,1.789-0.288,2.75-0.284c0.725,0.838,1.428,1.69,2.115,2.53  c0.289,0.351,0.578,0.7,0.867,1.049c-0.906,0.221-1.803,0.494-2.721,0.865C60.365,48.953,60.047,48.508,59.732,48.067z   M43.922,38.929c-0.342,0.117-0.684,0.25-1.029,0.396c-0.295,0.065-0.59,0.127-0.885,0.179c-0.244,0.042-0.484,0.071-0.725,0.096  c0.584-0.27,1.172-0.527,1.76-0.78C43.344,38.868,43.635,38.903,43.922,38.929z M40.813,40.386c-0.486,0.29-0.982,0.608-1.496,0.981  c-0.277,0.06-0.553,0.12-0.828,0.167c-0.389,0.068-0.773,0.104-1.156,0.128c0.758-0.453,1.533-0.871,2.32-1.267  C40.033,40.413,40.422,40.408,40.813,40.386z M38.047,42.35c-0.791,0.635-1.555,1.295-2.295,1.974  c-0.385,0.007-0.768,0.015-1.186,0.01c-0.383-0.006-0.762-0.05-1.143-0.09c0.879-0.626,1.775-1.232,2.684-1.817  C36.742,42.455,37.391,42.43,38.047,42.35z M34.557,45.083c0.131,0.002,0.25-0.003,0.379-0.003c-0.58,0.547-1.154,1.096-1.719,1.641  c-0.311,0.298-0.629,0.601-0.945,0.901c-0.561-0.122-1.135-0.254-1.746-0.414c-0.277-0.072-0.543-0.159-0.813-0.24  c0.168-0.125,0.34-0.252,0.508-0.376c0.76-0.567,1.535-1.138,2.314-1.707C33.201,44.995,33.873,45.073,34.557,45.083z   M30.334,47.934c0.445,0.117,0.869,0.217,1.285,0.312c-0.781,0.739-1.574,1.471-2.393,2.164c-0.131,0.111-0.266,0.215-0.396,0.324  c-0.729-0.308-1.459-0.607-2.182-0.932c-0.172-0.077-0.34-0.165-0.51-0.244c0.053-0.037,0.105-0.07,0.16-0.107  c0.895-0.626,1.781-1.275,2.658-1.923C29.408,47.673,29.865,47.811,30.334,47.934z M36.061,49.175  c0.949,0.218,1.867,0.483,2.797,0.846c-0.838,1.145-1.707,2.283-2.635,3.356c-0.133,0.153-0.273,0.293-0.408,0.443  c-0.92-0.457-1.85-0.889-2.783-1.295C33.988,51.554,34.98,50.457,36.061,49.175z M36.789,53.868c0.986-1.14,1.9-2.345,2.783-3.551  c0.91,0.41,1.852,0.945,2.861,1.658c-0.857,1.17-1.742,2.336-2.693,3.434c-0.121,0.141-0.25,0.269-0.373,0.406  c-0.227-0.145-0.449-0.295-0.678-0.435c-0.711-0.434-1.439-0.835-2.174-1.216C36.605,54.063,36.699,53.97,36.789,53.868z   M40.309,55.898c0.967-1.117,1.865-2.299,2.73-3.483c1.018,0.765,1.988,1.588,2.928,2.44c-0.877,1.051-1.773,2.096-2.73,3.074  c-0.102,0.105-0.209,0.201-0.313,0.305c-0.953-0.688-1.924-1.363-2.914-2.01C40.107,56.113,40.209,56.011,40.309,55.898z   M43.773,58.453c0.965-0.988,1.865-2.035,2.744-3.087c0.729,0.677,1.445,1.36,2.146,2.039c0.26,0.25,0.529,0.504,0.793,0.757  c-0.861,0.818-1.736,1.634-2.643,2.402c-0.113,0.097-0.23,0.187-0.346,0.281c-0.295-0.218-0.594-0.438-0.883-0.654  c-0.676-0.502-1.359-1.006-2.049-1.512C43.615,58.604,43.695,58.531,43.773,58.453z M53.186,60.563  c-0.906-0.769-1.781-1.582-2.641-2.4c0.26-0.251,0.527-0.503,0.785-0.751c0.705-0.681,1.424-1.365,2.154-2.043  c0.879,1.052,1.779,2.1,2.744,3.087c0.078,0.079,0.158,0.148,0.234,0.227c-0.695,0.508-1.385,1.018-2.063,1.523  c-0.285,0.212-0.578,0.428-0.867,0.643C53.416,60.75,53.299,60.659,53.186,60.563z M56.766,57.93  c-0.957-0.979-1.854-2.022-2.73-3.074c0.939-0.853,1.912-1.676,2.93-2.439c0.865,1.186,1.764,2.366,2.732,3.482  c0.096,0.112,0.199,0.215,0.297,0.324c-0.99,0.647-1.961,1.322-2.916,2.012C56.975,58.13,56.867,58.035,56.766,57.93z   M60.264,55.408c-0.951-1.098-1.838-2.264-2.695-3.436c1.01-0.711,1.951-1.248,2.861-1.657c0.881,1.208,1.795,2.415,2.783,3.553  c0.088,0.102,0.182,0.193,0.271,0.295c-0.736,0.381-1.463,0.782-2.174,1.216c-0.229,0.14-0.449,0.289-0.676,0.433  C60.512,55.676,60.385,55.548,60.264,55.408z M63.779,53.378c-0.93-1.073-1.797-2.211-2.635-3.357  c0.928-0.363,1.848-0.627,2.797-0.846c1.08,1.283,2.07,2.379,3.027,3.351c-0.934,0.406-1.861,0.838-2.783,1.295  C64.053,53.671,63.912,53.531,63.779,53.378z M70.771,50.408c-0.818-0.694-1.613-1.428-2.396-2.168  c0.422-0.096,0.838-0.188,1.291-0.306c0.469-0.123,0.926-0.261,1.379-0.406c0.875,0.648,1.76,1.295,2.656,1.92  c0.055,0.038,0.109,0.072,0.164,0.109c-0.172,0.079-0.342,0.168-0.514,0.246c-0.721,0.324-1.451,0.624-2.178,0.93  C71.039,50.624,70.902,50.52,70.771,50.408z M69.477,47.208c-0.611,0.16-1.188,0.292-1.748,0.414  c-0.314-0.302-0.637-0.605-0.947-0.905c-0.563-0.544-1.137-1.092-1.715-1.638c0.129,0,0.246,0.005,0.379,0.003  c0.68-0.01,1.355-0.082,2.025-0.193c0.777,0.565,1.549,1.134,2.307,1.699c0.168,0.125,0.342,0.253,0.512,0.379  C70.02,47.049,69.752,47.136,69.477,47.208z M65.434,44.333c-0.418,0.005-0.799-0.003-1.184-0.01  c-0.74-0.678-1.504-1.338-2.293-1.973c0.656,0.08,1.303,0.105,1.936,0.076c0.91,0.584,1.805,1.19,2.684,1.816  C66.195,44.283,65.816,44.327,65.434,44.333z M61.514,41.535c-0.275-0.048-0.549-0.107-0.824-0.167  c-0.516-0.374-1.012-0.692-1.498-0.982c0.391,0.022,0.777,0.027,1.16,0.01c0.785,0.396,1.563,0.814,2.32,1.268  C62.287,41.64,61.902,41.603,61.514,41.535z M57.996,39.504c-0.295-0.051-0.59-0.114-0.885-0.179  c-0.346-0.146-0.689-0.279-1.031-0.397c0.287-0.026,0.578-0.061,0.877-0.108c0.588,0.253,1.176,0.51,1.762,0.779  C58.479,39.575,58.238,39.546,57.996,39.504z M51.889,37.053C51.229,37.226,50.604,37.37,50,37.5  c-0.602-0.129-1.227-0.274-1.887-0.447c-0.182-0.048-0.357-0.106-0.539-0.159c0.486-0.208,0.977-0.407,1.459-0.623  c0.326-0.146,0.645-0.31,0.967-0.461c0.322,0.151,0.641,0.315,0.965,0.461c0.482,0.217,0.975,0.416,1.461,0.624  C52.246,36.946,52.07,37.005,51.889,37.053z M45.441,36.989c-0.092,0.039-0.182,0.079-0.275,0.118  c-0.732,0.306-1.475,0.616-2.217,0.934c-0.754-0.134-1.564-0.344-2.531-0.684c-0.018-0.006-0.033-0.014-0.051-0.021  c0.525-0.279,1.057-0.565,1.576-0.84c0.336-0.178,0.672-0.358,1.008-0.537C43.764,36.333,44.592,36.678,45.441,36.989z   M40.17,38.064c0.584,0.206,1.115,0.365,1.615,0.493c-0.771,0.343-1.537,0.704-2.297,1.083c-0.875-0.054-1.729-0.211-2.568-0.439  c0.863-0.475,1.717-0.943,2.582-1.404C39.727,37.883,39.941,37.984,40.17,38.064z M38.295,40.26  c-0.541,0.292-1.082,0.584-1.607,0.906c-0.264,0.161-0.52,0.333-0.779,0.499c-0.867-0.059-1.715-0.217-2.547-0.444  c0.254-0.148,0.506-0.308,0.76-0.455c0.617-0.359,1.252-0.7,1.881-1.05C36.748,39.955,37.514,40.14,38.295,40.26z M34.896,42.311  c-0.861,0.575-1.703,1.174-2.537,1.777c-0.881-0.163-1.754-0.388-2.609-0.689c0.906-0.56,1.816-1.105,2.732-1.653  C33.27,41.999,34.074,42.192,34.896,42.311z M31.527,44.69c-0.59,0.434-1.176,0.869-1.756,1.301  c-0.313,0.232-0.631,0.468-0.949,0.703c-0.92-0.309-1.813-0.659-2.684-1.046c0.203-0.127,0.406-0.252,0.607-0.379  c0.727-0.454,1.471-0.915,2.209-1.374C29.797,44.216,30.654,44.489,31.527,44.69z M28.098,47.231  c-0.736,0.542-1.48,1.083-2.229,1.605c-0.172,0.119-0.348,0.229-0.52,0.347c-0.916-0.436-1.824-0.886-2.725-1.355  c0.082-0.051,0.166-0.1,0.25-0.151c0.838-0.514,1.668-1.036,2.502-1.556C26.262,46.527,27.166,46.899,28.098,47.231z M24.625,49.667  c-0.924,0.62-1.848,1.221-2.779,1.806c-0.92-0.504-1.836-1.017-2.752-1.531c0.926-0.55,1.852-1.1,2.777-1.663  C22.779,48.758,23.697,49.22,24.625,49.667z M25.412,50.043c0.311,0.145,0.615,0.303,0.93,0.443c0.605,0.272,1.219,0.523,1.83,0.782  c-0.922,0.732-1.865,1.429-2.83,2.094c-0.787-0.418-1.576-0.834-2.361-1.258c-0.129-0.07-0.258-0.146-0.387-0.215  C23.539,51.292,24.479,50.677,25.412,50.043z M28.951,51.602c0.328,0.138,0.654,0.282,0.982,0.42  c0.59,0.246,1.186,0.496,1.781,0.748c-0.951,0.91-1.889,1.711-2.865,2.461c-0.701-0.375-1.408-0.754-2.102-1.121  c-0.223-0.116-0.443-0.236-0.666-0.354C27.061,53.074,28.018,52.357,28.951,51.602z M32.459,53.091  c0.949,0.41,1.893,0.845,2.826,1.304c-0.938,0.981-1.924,1.881-2.967,2.726c-0.916-0.507-1.822-1.011-2.738-1.501  C30.557,54.854,31.498,54.029,32.459,53.091z M35.988,54.739c0.783,0.401,1.559,0.821,2.311,1.28  c0.188,0.113,0.367,0.236,0.553,0.354c-0.947,0.999-1.947,1.914-3.004,2.77c-0.418-0.248-0.83-0.505-1.246-0.746  c-0.52-0.302-1.049-0.584-1.574-0.879C34.068,56.661,35.049,55.739,35.988,54.739z M39.492,56.784  c0.979,0.636,1.939,1.299,2.881,1.979c-0.961,0.914-1.957,1.757-2.977,2.533c-0.947-0.588-1.9-1.163-2.861-1.739  C37.574,58.701,38.555,57.781,39.492,56.784z M42.99,59.209c0.723,0.528,1.439,1.059,2.146,1.583c0.24,0.179,0.488,0.36,0.732,0.542  c-0.951,0.76-1.926,1.48-2.924,2.169c-0.32-0.201-0.643-0.397-0.963-0.599c-0.629-0.395-1.275-0.793-1.914-1.191  C41.07,60.941,42.051,60.107,42.99,59.209z M50,64.294c0.924,0.625,1.859,1.235,2.799,1.826c-0.939,0.567-1.875,1.127-2.811,1.682  c-0.941-0.558-1.871-1.112-2.797-1.674C48.135,65.534,49.074,64.922,50,64.294z M54.133,61.335c0.236-0.177,0.48-0.354,0.715-0.53  c0.711-0.529,1.434-1.063,2.162-1.595c0.943,0.904,1.92,1.737,2.918,2.507c-0.648,0.404-1.305,0.809-1.943,1.208  c-0.309,0.194-0.621,0.386-0.93,0.579C56.059,62.816,55.082,62.096,54.133,61.335z M57.625,58.764  c0.945-0.681,1.906-1.344,2.885-1.979c0.938,0.998,1.916,1.918,2.957,2.772c-0.961,0.577-1.916,1.15-2.863,1.739  C59.584,60.52,58.59,59.677,57.625,58.764z M61.15,56.373c0.184-0.116,0.365-0.239,0.551-0.352c0.752-0.461,1.527-0.881,2.313-1.281  c0.938,1,1.918,1.922,2.959,2.777c-0.523,0.295-1.053,0.577-1.57,0.877c-0.418,0.243-0.83,0.5-1.248,0.748  C63.098,58.288,62.1,57.373,61.15,56.373z M64.717,54.396c0.934-0.459,1.877-0.895,2.824-1.304c0.961,0.938,1.902,1.763,2.881,2.527  c-0.918,0.491-1.824,0.994-2.738,1.501C66.641,56.277,65.652,55.378,64.717,54.396z M68.287,52.77  c0.596-0.254,1.191-0.504,1.781-0.75c0.328-0.137,0.652-0.281,0.98-0.418c0.934,0.756,1.891,1.472,2.869,2.153  c-0.219,0.115-0.436,0.232-0.652,0.349c-0.697,0.369-1.408,0.75-2.115,1.127C70.174,54.48,69.236,53.679,68.287,52.77z   M71.828,51.27c0.611-0.26,1.225-0.51,1.828-0.781c0.314-0.141,0.621-0.299,0.934-0.445c0.934,0.634,1.873,1.25,2.816,1.846  c-0.129,0.07-0.256,0.146-0.385,0.215c-0.785,0.424-1.574,0.84-2.363,1.258C73.693,52.697,72.75,52.001,71.828,51.27z   M75.375,49.667c0.928-0.447,1.846-0.909,2.754-1.388c0.922,0.56,1.85,1.111,2.779,1.663c-0.918,0.515-1.834,1.027-2.754,1.531  C77.223,50.888,76.299,50.286,75.375,49.667z M74.65,49.182c-0.172-0.119-0.35-0.229-0.521-0.349  c-0.746-0.521-1.488-1.061-2.227-1.602c0.932-0.332,1.836-0.703,2.721-1.11c0.832,0.52,1.664,1.042,2.5,1.556  c0.082,0.051,0.168,0.1,0.25,0.15C76.477,48.297,75.566,48.747,74.65,49.182z M71.178,46.694c-0.318-0.236-0.641-0.473-0.953-0.707  c-0.578-0.431-1.162-0.864-1.752-1.297c0.873-0.203,1.732-0.474,2.576-0.794c0.734,0.458,1.475,0.916,2.197,1.368  c0.205,0.129,0.412,0.255,0.617,0.384C72.99,46.035,72.098,46.385,71.178,46.694z M67.641,44.088  c-0.834-0.604-1.676-1.202-2.537-1.777c0.822-0.119,1.627-0.312,2.414-0.564c0.916,0.548,1.828,1.093,2.732,1.653  C69.395,43.7,68.521,43.925,67.641,44.088z M64.094,41.665c-0.262-0.167-0.518-0.339-0.781-0.5  c-0.527-0.321-1.066-0.613-1.605-0.904c0.781-0.12,1.547-0.306,2.295-0.545c0.629,0.351,1.264,0.692,1.883,1.052  c0.254,0.147,0.504,0.305,0.758,0.454C65.811,41.448,64.961,41.606,64.094,41.665z M60.51,39.639  c-0.76-0.379-1.523-0.739-2.293-1.082c0.5-0.128,1.031-0.287,1.617-0.493c0.227-0.08,0.443-0.181,0.666-0.267  c0.865,0.461,1.719,0.929,2.58,1.404C62.24,39.428,61.385,39.585,60.51,39.639z M59.584,37.357c-0.969,0.34-1.777,0.55-2.533,0.684  c-0.74-0.318-1.48-0.627-2.215-0.933c-0.094-0.039-0.186-0.08-0.279-0.119c0.852-0.313,1.68-0.656,2.492-1.031  c0.338,0.179,0.676,0.361,1.014,0.54c0.518,0.274,1.049,0.56,1.572,0.838C59.617,37.343,59.602,37.351,59.584,37.357z M50,34.979  c-0.918-0.436-1.828-0.887-2.729-1.356c0.912-0.501,1.822-1.005,2.729-1.517c0.908,0.511,1.818,1.015,2.73,1.516  C51.828,34.093,50.918,34.543,50,34.979z M46.477,33.206c-0.93-0.496-1.852-0.999-2.764-1.513c0.92-0.527,1.84-1.058,2.762-1.586  c0.918,0.527,1.828,1.045,2.754,1.57C48.313,32.191,47.396,32.703,46.477,33.206z M42.102,35.562  c-0.17,0.09-0.338,0.181-0.508,0.271c-0.705,0.373-1.424,0.759-2.139,1.14c-0.943-0.377-1.861-0.789-2.758-1.251  c0.908-0.521,1.816-1.044,2.727-1.566C40.311,34.647,41.197,35.121,42.102,35.562z M38.59,37.433  c-0.893,0.478-1.771,0.969-2.66,1.462c-0.939-0.32-1.854-0.717-2.744-1.158c0.916-0.527,1.832-1.051,2.748-1.577  C36.797,36.617,37.682,37.044,38.59,37.433z M35.059,39.382c-0.438,0.247-0.881,0.483-1.314,0.734  c-0.449,0.261-0.895,0.538-1.344,0.806c-0.934-0.32-1.846-0.716-2.734-1.156c0.383-0.221,0.764-0.444,1.145-0.664  c0.533-0.308,1.068-0.611,1.6-0.918C33.27,38.626,34.15,39.036,35.059,39.382z M31.564,41.422c-0.902,0.544-1.797,1.084-2.688,1.637  c-0.93-0.371-1.838-0.794-2.729-1.252c0.914-0.531,1.828-1.063,2.744-1.593C29.76,40.661,30.648,41.075,31.564,41.422z   M28.078,43.557c-0.574,0.359-1.16,0.72-1.729,1.076c-0.34,0.213-0.682,0.423-1.021,0.636c-0.922-0.436-1.83-0.905-2.73-1.399  c0.926-0.539,1.854-1.077,2.783-1.615C26.26,42.719,27.156,43.166,28.078,43.557z M24.566,45.742  c-0.693,0.433-1.387,0.868-2.084,1.295c-0.211,0.13-0.424,0.252-0.637,0.382c-0.93-0.495-1.852-0.998-2.764-1.511  c0.117-0.068,0.234-0.135,0.352-0.203c0.799-0.466,1.602-0.929,2.402-1.395C22.74,44.812,23.646,45.293,24.566,45.742z   M21.094,47.87c-0.92,0.557-1.84,1.106-2.76,1.651c-0.93-0.525-1.848-1.042-2.77-1.57c0.922-0.536,1.844-1.069,2.766-1.604  C19.242,46.862,20.162,47.37,21.094,47.87z M17.592,49.966c-0.928,0.546-1.838,1.082-2.76,1.616  c-0.926-0.531-1.852-1.063-2.777-1.595c0.92-0.534,1.84-1.067,2.76-1.603C15.74,48.916,16.658,49.438,17.592,49.966z M18.35,50.387  c0.92,0.519,1.844,1.031,2.77,1.539c-0.934,0.576-1.854,1.135-2.771,1.676c-0.922-0.528-1.842-1.06-2.764-1.588  C16.506,51.477,17.422,50.936,18.35,50.387z M21.867,52.343c0.252,0.138,0.504,0.284,0.756,0.42c0.67,0.361,1.344,0.716,2.014,1.072  c-0.914,0.611-1.844,1.202-2.785,1.778c-0.865-0.495-1.727-0.993-2.59-1.487c-0.057-0.032-0.111-0.063-0.166-0.096  C20.012,53.484,20.936,52.922,21.867,52.343z M25.389,54.234c0.338,0.18,0.672,0.359,1.01,0.539c0.59,0.312,1.193,0.637,1.789,0.953  c-0.883,0.646-1.814,1.268-2.828,1.902c-0.922-0.529-1.844-1.061-2.768-1.59C23.537,55.456,24.471,54.857,25.389,54.234z   M28.924,56.119c0.922,0.493,1.834,0.995,2.754,1.502c-0.9,0.695-1.846,1.359-2.836,2.006c-0.914-0.525-1.83-1.05-2.744-1.575  C27.107,57.412,28.037,56.781,28.924,56.119z M32.389,58.02c0.611,0.342,1.23,0.674,1.836,1.024c0.33,0.192,0.658,0.397,0.99,0.595  c-0.908,0.699-1.857,1.368-2.855,2.021c-0.498-0.288-0.992-0.578-1.49-0.864c-0.432-0.25-0.867-0.498-1.301-0.748  C30.553,59.395,31.49,58.723,32.389,58.02z M35.904,60.051c0.953,0.571,1.902,1.141,2.844,1.725c-0.939,0.687-1.893,1.33-2.85,1.937  c-0.938-0.544-1.875-1.09-2.814-1.634C34.068,61.427,35.008,60.754,35.904,60.051z M39.432,62.2  c0.719,0.448,1.445,0.897,2.152,1.341c0.227,0.143,0.453,0.281,0.68,0.422c-0.926,0.62-1.867,1.219-2.824,1.803  c-0.938-0.545-1.875-1.088-2.813-1.632C37.563,63.532,38.502,62.889,39.432,62.2z M46.482,66.575  c0.92,0.559,1.842,1.112,2.775,1.665c-0.93,0.547-1.844,1.083-2.766,1.619c-0.924-0.536-1.848-1.07-2.771-1.607  C44.625,67.713,45.553,67.152,46.482,66.575z M49.998,68.678c0.9,0.532,1.818,1.069,2.76,1.618C51.84,70.83,50.92,71.363,50,71.896  c-0.92-0.533-1.84-1.067-2.758-1.602C48.152,69.764,49.068,69.227,49.998,68.678z M50.734,68.242  c0.932-0.553,1.857-1.108,2.781-1.67c0.932,0.58,1.859,1.14,2.766,1.679c-0.926,0.538-1.852,1.073-2.775,1.611  C52.559,69.313,51.637,68.773,50.734,68.242z M57.736,63.964c0.215-0.135,0.432-0.268,0.646-0.401  c0.717-0.449,1.453-0.904,2.182-1.358c0.926,0.687,1.863,1.328,2.805,1.934c-0.936,0.544-1.873,1.087-2.809,1.63  C59.605,65.184,58.662,64.584,57.736,63.964z M61.254,61.775c0.941-0.584,1.891-1.152,2.844-1.725  c0.896,0.704,1.836,1.375,2.818,2.027c-0.938,0.543-1.877,1.089-2.814,1.634C63.145,63.104,62.191,62.462,61.254,61.775z   M64.787,59.638c0.332-0.196,0.662-0.401,0.994-0.595c0.604-0.35,1.223-0.684,1.832-1.023c0.898,0.703,1.836,1.375,2.82,2.026  c-0.436,0.25-0.869,0.498-1.303,0.748c-0.496,0.287-0.992,0.577-1.488,0.864C66.645,61.007,65.693,60.338,64.787,59.638z   M68.324,57.623c0.92-0.508,1.83-1.01,2.752-1.502c0.889,0.661,1.816,1.292,2.826,1.933c-0.914,0.525-1.828,1.05-2.742,1.575  C70.17,58.98,69.225,58.316,68.324,57.623z M71.813,55.729c0.602-0.32,1.209-0.646,1.803-0.961c0.332-0.177,0.664-0.355,0.998-0.531  c0.918,0.621,1.852,1.22,2.795,1.803c-0.922,0.529-1.846,1.061-2.768,1.59C73.629,56.995,72.697,56.374,71.813,55.729z   M75.365,53.835c0.67-0.356,1.344-0.71,2.014-1.072c0.252-0.137,0.504-0.282,0.756-0.42c0.932,0.579,1.854,1.142,2.773,1.688  c-0.063,0.036-0.127,0.073-0.189,0.108c-0.857,0.49-1.711,0.983-2.566,1.475C77.207,55.037,76.279,54.446,75.365,53.835z   M78.883,51.926c0.926-0.508,1.848-1.021,2.77-1.54c0.926,0.548,1.84,1.089,2.764,1.627c-0.92,0.528-1.842,1.06-2.764,1.587  C80.736,53.061,79.814,52.501,78.883,51.926z M82.41,49.966c0.934-0.527,1.85-1.049,2.775-1.58c0.92,0.535,1.84,1.068,2.76,1.603  c-0.926,0.531-1.852,1.063-2.775,1.594C84.246,51.045,83.334,50.511,82.41,49.966z M81.666,49.521  c-0.924-0.546-1.842-1.097-2.758-1.651c0.93-0.5,1.85-1.008,2.764-1.524c0.92,0.536,1.844,1.069,2.766,1.605  C83.514,48.479,82.596,48.997,81.666,49.521z M78.154,47.418c-0.211-0.128-0.428-0.252-0.637-0.381  c-0.697-0.427-1.389-0.862-2.082-1.295c0.92-0.449,1.826-0.93,2.729-1.431c0.783,0.456,1.568,0.909,2.352,1.365  c0.133,0.078,0.268,0.155,0.4,0.232C80.004,46.421,79.082,46.924,78.154,47.418z M74.674,45.269  c-0.344-0.214-0.688-0.426-1.031-0.641c-0.568-0.356-1.154-0.718-1.732-1.079c0.932-0.393,1.836-0.835,2.711-1.295  c0.928,0.539,1.855,1.076,2.783,1.615C76.504,44.364,75.596,44.833,74.674,45.269z M71.123,43.06  c-0.891-0.553-1.783-1.093-2.688-1.637c0.916-0.348,1.807-0.761,2.672-1.207c0.916,0.53,1.83,1.062,2.744,1.592  C72.961,42.266,72.053,42.689,71.123,43.06z M67.602,40.922c-0.447-0.267-0.893-0.543-1.34-0.804  c-0.436-0.252-0.879-0.489-1.318-0.736c0.906-0.346,1.789-0.756,2.648-1.198c0.531,0.307,1.064,0.611,1.598,0.918  c0.383,0.221,0.764,0.444,1.145,0.665C69.447,40.207,68.537,40.603,67.602,40.922z M64.07,38.895  c-0.889-0.493-1.768-0.984-2.66-1.462c0.908-0.389,1.793-0.815,2.658-1.272c0.916,0.525,1.832,1.05,2.746,1.577  C65.924,38.179,65.01,38.575,64.07,38.895z M60.547,36.973c-0.713-0.38-1.43-0.765-2.133-1.137  c-0.172-0.091-0.344-0.183-0.514-0.274c0.902-0.441,1.791-0.915,2.676-1.406c0.908,0.521,1.816,1.044,2.727,1.566  C62.408,36.183,61.488,36.595,60.547,36.973z M53.525,33.206c-0.918-0.502-1.834-1.014-2.752-1.528  c0.926-0.523,1.836-1.043,2.754-1.57c0.922,0.528,1.842,1.059,2.764,1.586C55.377,32.207,54.455,32.71,53.525,33.206z M50,31.249  c-0.932-0.526-1.85-1.044-2.773-1.574c0.924-0.53,1.85-1.062,2.773-1.593c0.924,0.532,1.85,1.063,2.773,1.593  C51.852,30.204,50.934,30.723,50,31.249z M46.475,29.243c-0.545-0.313-1.09-0.624-1.629-0.936l2.766-1.598  c0.545,0.314,1.092,0.626,1.637,0.94C48.322,28.181,47.398,28.712,46.475,29.243z M45.721,29.675  c-0.924,0.53-1.848,1.063-2.773,1.593c-0.545-0.31-1.082-0.619-1.621-0.929l2.768-1.598C44.633,29.051,45.178,29.363,45.721,29.675z   M37.055,32.805c0.539,0.313,1.076,0.62,1.609,0.923c-0.916,0.524-1.828,1.05-2.742,1.575c-0.543-0.292-1.088-0.592-1.633-0.902  L37.055,32.805z M30.018,36.867c0.527,0.303,1.063,0.606,1.607,0.902c-0.396,0.229-0.795,0.455-1.189,0.684  c-0.521,0.301-1.041,0.605-1.563,0.906c-0.551-0.291-1.09-0.592-1.621-0.896L30.018,36.867z M26.5,38.898  c0.525,0.304,1.064,0.607,1.609,0.904c-0.918,0.531-1.834,1.064-2.752,1.597c-0.551-0.297-1.09-0.601-1.623-0.905L26.5,38.898z   M19.465,42.96c0.541,0.313,1.078,0.62,1.613,0.924c-0.674,0.392-1.348,0.781-2.021,1.173c-0.244,0.143-0.49,0.284-0.734,0.427  c-0.545-0.31-1.082-0.618-1.621-0.928L19.465,42.96z M14.064,47.955c-0.92,0.534-1.84,1.068-2.76,1.602  c-0.545-0.313-1.092-0.626-1.639-0.94l2.768-1.598C12.975,47.33,13.521,47.642,14.064,47.955z M10.557,49.991  c-0.549,0.318-1.098,0.638-1.646,0.955L7.271,50l1.645-0.95C9.463,49.364,10.01,49.677,10.557,49.991z M11.307,50.422  c0.926,0.532,1.852,1.063,2.777,1.596c-0.553,0.319-1.107,0.644-1.654,0.959l-2.771-1.599  C10.207,51.061,10.758,50.741,11.307,50.422z M14.834,52.448c0.926,0.53,1.85,1.063,2.773,1.593  c-0.566,0.332-1.111,0.648-1.662,0.967l-2.768-1.598C13.729,53.092,14.281,52.77,14.834,52.448z M18.354,54.47  c0.178,0.103,0.355,0.205,0.535,0.308c0.744,0.426,1.486,0.854,2.23,1.281c-0.549,0.33-1.102,0.656-1.658,0.98l-2.768-1.598  C17.244,55.123,17.791,54.801,18.354,54.47z M21.861,56.484c0.926,0.529,1.85,1.063,2.775,1.593  c-0.527,0.321-1.078,0.651-1.658,0.991l-2.771-1.6C20.764,57.145,21.314,56.814,21.861,56.484z M25.377,58.503  c0.918,0.528,1.838,1.056,2.756,1.583c-0.533,0.338-1.082,0.674-1.645,1.009l-2.766-1.597  C24.301,59.159,24.854,58.827,25.377,58.503z M28.869,60.509c0.541,0.313,1.084,0.622,1.625,0.935  c0.389,0.223,0.773,0.449,1.158,0.672c-0.535,0.338-1.084,0.675-1.646,1.011l-2.771-1.601C27.795,61.189,28.338,60.85,28.869,60.509  z M32.387,62.54c0.934,0.54,1.863,1.083,2.797,1.624c-0.551,0.341-1.104,0.673-1.652,0.998l-2.779-1.604  C31.311,63.219,31.854,62.881,32.387,62.54z M35.912,64.586c0.934,0.542,1.867,1.082,2.801,1.625  c-0.551,0.33-1.105,0.657-1.66,0.982l-2.779-1.604C34.814,65.268,35.361,64.932,35.912,64.586z M39.449,66.639  c0.906,0.526,1.813,1.051,2.717,1.577c0.023,0.013,0.047,0.027,0.07,0.04c-0.566,0.332-1.125,0.658-1.664,0.971l-2.773-1.603  C38.352,67.299,38.902,66.97,39.449,66.639z M42.98,68.688c0.92,0.537,1.844,1.069,2.764,1.605  c-0.553,0.321-1.107,0.645-1.658,0.963l-2.768-1.598C41.861,69.345,42.414,69.021,42.98,68.688z M46.496,70.729  c0.92,0.534,1.84,1.067,2.758,1.602c-0.551,0.318-1.1,0.639-1.648,0.958l-2.766-1.597C45.387,71.373,45.934,71.057,46.496,70.729z   M50,72.763c0.551,0.318,1.1,0.638,1.648,0.956L50,74.67l-1.646-0.951C48.902,73.4,49.451,73.081,50,72.763z M50.748,72.329  c0.918-0.533,1.836-1.066,2.756-1.601c0.543,0.315,1.094,0.636,1.658,0.961l-2.766,1.596C51.848,72.968,51.299,72.648,50.748,72.329  z M54.25,70.296c0.924-0.537,1.85-1.071,2.771-1.608c0.566,0.334,1.119,0.657,1.66,0.971l-2.77,1.6  C55.348,70.932,54.793,70.609,54.25,70.296z M57.768,68.255c0.045-0.026,0.09-0.052,0.135-0.078  c0.883-0.514,1.768-1.024,2.648-1.538c0.547,0.332,1.098,0.66,1.652,0.985l-2.771,1.601C58.891,68.913,58.332,68.588,57.768,68.255z   M61.289,66.211c0.932-0.542,1.863-1.082,2.795-1.623c0.549,0.342,1.096,0.678,1.643,1.002l-2.777,1.604  C62.393,66.869,61.84,66.542,61.289,66.211z M64.816,64.164c0.934-0.541,1.865-1.083,2.799-1.624  c0.531,0.341,1.074,0.679,1.633,1.017l-2.777,1.604C65.92,64.837,65.369,64.505,64.816,64.164z M68.348,62.116  c0.385-0.224,0.77-0.449,1.158-0.673c0.541-0.313,1.084-0.621,1.627-0.935c0.531,0.341,1.074,0.681,1.633,1.017l-2.771,1.602  C69.432,62.791,68.883,62.454,68.348,62.116z M71.867,60.086c0.918-0.529,1.838-1.055,2.756-1.583  c0.525,0.324,1.078,0.656,1.654,0.996l-2.766,1.596C72.949,60.76,72.4,60.424,71.867,60.086z M75.365,58.078  c0.924-0.531,1.85-1.063,2.775-1.594c0.547,0.332,1.098,0.66,1.65,0.985l-2.77,1.599C76.441,58.729,75.893,58.398,75.365,58.078z   M78.881,56.059c0.736-0.423,1.473-0.848,2.209-1.27c0.186-0.105,0.371-0.213,0.557-0.319c0.564,0.331,1.111,0.652,1.66,0.972  l-2.768,1.598C79.982,56.714,79.43,56.388,78.881,56.059z M82.393,54.041c0.926-0.53,1.85-1.063,2.773-1.593  c0.555,0.321,1.105,0.643,1.656,0.962l-2.768,1.598C83.504,54.689,82.957,54.373,82.393,54.041z M85.916,52.018  c0.928-0.531,1.852-1.063,2.777-1.595c0.549,0.318,1.098,0.638,1.648,0.956l-2.771,1.6C87.023,52.66,86.471,52.337,85.916,52.018z   M89.443,49.991c0.547-0.314,1.094-0.627,1.639-0.941L92.729,50l-1.639,0.946C90.541,50.629,89.992,50.309,89.443,49.991z   M88.695,49.557c-0.92-0.534-1.84-1.068-2.76-1.602c0.543-0.313,1.09-0.625,1.629-0.936l2.768,1.598  C89.787,48.931,89.24,49.243,88.695,49.557z M53.527,29.243c-0.924-0.531-1.85-1.062-2.773-1.593  c0.545-0.313,1.092-0.625,1.637-0.94l2.766,1.598C54.617,28.619,54.072,28.93,53.527,29.243z M50,27.217  c-0.545-0.314-1.092-0.626-1.639-0.941L50,25.33l1.639,0.946C51.094,26.59,50.547,26.903,50,27.217z"/><text x="0" y="115" fill="#000000" font-size="5px" font-weight="bold" font-family="'Helvetica Neue', Helvetica, Arial-Unicode, Arial, Sans-serif">Created by Nono Martínez Alonso</text><text x="0" y="120" fill="#000000" font-size="5px" font-weight="bold" font-family="'Helvetica Neue', Helvetica, Arial-Unicode, Arial, Sans-serif">from the Noun Project</text></svg>