<?xml version="1.0" encoding="UTF-8"?>
<svg id="Layer_1" xmlns="http://www.w3.org/2000/svg" version="1.1" xmlns:cc="http://creativecommons.org/ns#" xmlns:dc="http://purl.org/dc/elements/1.1/" xmlns:inkscape="http://www.inkscape.org/namespaces/inkscape" xmlns:rdf="http://www.w3.org/1999/02/22-rdf-syntax-ns#" xmlns:sodipodi="http://sodipodi.sourceforge.net/DTD/sodipodi-0.dtd" xmlns:svg="http://www.w3.org/2000/svg" viewBox="0 0 100 125">
  <!-- Generator: Adobe Illustrator 29.5.1, SVG Export Plug-In . SVG Version: 2.1.0 Build 141)  -->
  <path d="M50.11,6.77c-.09,0-.19.02-.28.03-.02,0-.04,0-.06,0-.1,0-.21.02-.31.03-.01,0-.02,0-.03,0-.01,0-.02,0-.03,0-.03,0-.06.02-.09.03-.04,0-.08.02-.12.03-.03,0-.06,0-.09,0-.02.01-.04.02-.06.03-.07.03-.15.06-.22.09-.01,0-.02,0-.03,0-.1.04-.19.08-.28.12,0,.01,0,.02,0,.03-.03,0-.06,0-.09,0-.03.02-.06.04-.09.06-.02.02-.04.04-.06.06-.02.01-.04.02-.06.03-.01.01-.02.02-.03.03-.1.05-.19.1-.28.16-.01.02-.02.04-.03.06-.05.05-.11.1-.16.16-.01.01-.02.02-.03.03-.08.06-.15.12-.22.19-.01.02-.02.04-.03.06l-10.38,10.38c-1.35,1.33-1.36,3.5-.03,4.84s3.5,1.36,4.84.03c0,0,0,0,0,0l4.81-4.81v15.5c-.18,1.88,1.2,3.55,3.08,3.73,1.88.18,3.55-1.2,3.73-3.08.02-.23.02-.45,0-.68v-15.38l4.75,4.72c1.32,1.35,3.49,1.38,4.84.06.67-.65,1.04-1.54,1.03-2.47,0-.92-.37-1.8-1.03-2.44l-10.09-10.09c-.05-.07-.1-.15-.16-.22-.03-.02-.06-.04-.09-.06-.04-.06-.08-.13-.12-.19-.01-.01-.02-.02-.03-.03-.09-.08-.18-.15-.28-.22-.08-.08-.16-.15-.25-.22-.07-.05-.14-.11-.22-.16-.02-.01-.04-.02-.06-.03-.08-.03-.17-.07-.25-.09-.04-.02-.08-.04-.12-.06-.07-.03-.14-.07-.22-.09-.01,0-.02,0-.03,0-.09-.02-.19-.05-.28-.06-.02-.01-.04-.02-.06-.03-.08-.02-.17-.05-.25-.06-.03,0-.06,0-.09,0-.08,0-.17,0-.25,0-.02-.01-.04-.02-.06-.03h0ZM20.54,35.93c-.81.08-1.56.45-2.12,1.03l-10.09,10.09c-.06.05-.13.1-.19.16-.03.03-.06.06-.09.09-.06.04-.13.08-.19.12-.01.02-.02.04-.03.06-.08.08-.15.16-.22.25-.07.08-.13.16-.19.25-.06.08-.11.16-.16.25-.02.01-.04.02-.06.03-.03.08-.07.17-.09.25-.02.04-.04.08-.06.12-.03.07-.07.14-.09.22,0,.01,0,.02,0,.03-.02.09-.05.19-.06.28-.01.02-.02.04-.03.06-.01.09-.02.19-.03.28-.01.02-.02.04-.03.06,0,.08,0,.17,0,.25-.01.02-.02.04-.03.06,0,.1.02.21.03.31,0,.01,0,.02,0,.03,0,.1.02.21.03.31,0,.01,0,.02,0,.03,0,.02,0,.04,0,.06.01.02.02.04.03.06,0,.04.02.08.03.12,0,.03,0,.06,0,.09.01.02.02.04.03.06.03.07.06.15.09.22,0,.02,0,.04,0,.06.04.09.08.17.12.25.01.01.02.02.03.03,0,.02,0,.04,0,.06.02.03.04.06.06.09.02.03.04.06.06.09.01.02.02.04.03.06.01,0,.02,0,.03,0,.05.1.1.19.16.28.02.01.04.02.06.03.05.05.1.11.16.16.01.02.02.04.03.06.07.07.14.13.22.19.01.01.02.02.03.03l10.38,10.41c1.33,1.35,3.5,1.36,4.84.03s1.36-3.5.03-4.84c0,0,0,0,0,0l-4.81-4.84h15.5c1.88.18,3.55-1.2,3.73-3.08.18-1.88-1.2-3.55-3.08-3.73-.23-.02-.45-.02-.68,0h-15.37l4.72-4.75c1.35-1.32,1.38-3.49.06-4.84-.64-.66-1.52-1.03-2.44-1.03-.11,0-.23,0-.34,0h0ZM78.79,35.93c-1.88.19-3.25,1.87-3.07,3.75.08.81.45,1.56,1.03,2.13l4.69,4.75h-15.38c-1.88-.2-3.56,1.17-3.76,3.05-.2,1.88,1.17,3.56,3.05,3.76.23.02.45.02.68,0h15.53l-4.81,4.84c-1.43,1.24-1.58,3.4-.34,4.83,1.24,1.43,3.4,1.58,4.83.34.13-.11.24-.23.35-.36l10.38-10.41s.04-.02.06-.03c.06-.06.13-.12.19-.19.02-.02.04-.04.06-.06.05-.05.11-.1.16-.16.01-.01.02-.02.03-.03.07-.09.13-.18.19-.28.01-.02.02-.04.03-.06.02-.03.04-.06.06-.09.02-.03.04-.06.06-.09.01-.02.02-.04.03-.06,0-.01,0-.02,0-.03.06-.08.11-.16.16-.25,0-.02,0-.04,0-.06.03-.07.07-.14.09-.22,0-.02,0-.04,0-.06,0-.03,0-.06,0-.09.02-.04.04-.08.06-.12,0-.02,0-.04,0-.06,0-.02,0-.04,0-.06,0-.01,0-.02,0-.03.03-.1.05-.21.06-.31,0-.01,0-.02,0-.03,0-.1,0-.21,0-.31,0-.02,0-.04,0-.06,0-.08,0-.17,0-.25-.01-.02-.02-.04-.03-.06-.02-.09-.04-.19-.06-.28,0-.02,0-.04,0-.06-.02-.09-.04-.19-.06-.28-.01-.01-.02-.02-.03-.03-.03-.07-.06-.15-.09-.22,0-.04-.02-.08-.03-.12-.04-.09-.08-.17-.12-.25-.01-.01-.02-.02-.03-.03-.05-.09-.1-.17-.16-.25-.07-.09-.14-.17-.22-.25-.07-.09-.14-.17-.22-.25-.01-.02-.02-.04-.03-.06-.05-.04-.1-.08-.16-.12-.03-.03-.06-.06-.09-.09-.06-.05-.12-.11-.19-.16l-10.12-10.09c-.64-.66-1.52-1.03-2.44-1.03-.11,0-.23,0-.34,0h0ZM49.86,62.39c-1.89.11-3.33,1.73-3.22,3.61,0,.01,0,.03,0,.04v15.53l-4.81-4.84c-1.35-1.33-3.51-1.32-4.84.03s-1.32,3.51.03,4.84c0,0,0,0,0,0l10.38,10.38s.02.04.03.06c.07.07.14.13.22.19.01.01.02.02.03.03.05.05.1.11.16.16.01.02.02.04.03.06.09.06.19.11.28.16.01.01.02.02.03.03.02.01.04.02.06.03.02.02.04.04.06.06.03.02.06.04.09.06.03.01.06.02.09.03.09.06.19.11.28.16h.03c.07.02.15.04.22.06.02.01.04.02.06.03.03,0,.06,0,.09,0,.04.01.08.02.12.03.03.01.06.02.09.03h.06c.1.02.21.03.31.03.02,0,.04,0,.06,0,.09.01.19.02.28.03.02-.01.04-.02.06-.03.08,0,.17,0,.25,0,.03,0,.06,0,.09,0,.08-.02.17-.04.25-.06.02,0,.04,0,.06,0,.1-.03.19-.06.28-.09h.03c.07-.03.15-.06.22-.09.04,0,.08-.02.12-.03.08-.04.17-.08.25-.12.02-.01.04-.02.06-.03.07-.05.15-.1.22-.16.09-.07.17-.14.25-.22.1-.07.19-.14.28-.22.01-.01.02-.02.03-.03.04-.05.08-.1.12-.16.03-.03.06-.06.09-.09.05-.07.11-.14.16-.22l10.09-10.09c.66-.64,1.03-1.52,1.03-2.44,0-1.89-1.52-3.43-3.41-3.44-.93,0-1.82.37-2.47,1.03l-4.75,4.72v-15.38c.15-1.88-1.26-3.53-3.14-3.68-.15-.01-.3-.01-.45,0h0Z"/>
</svg>