<?xml version="1.0" encoding="UTF-8"?>
<svg id="Layer_1" xmlns="http://www.w3.org/2000/svg" version="1.1" viewBox="0 0 110 135">
  <!-- Generator: Adobe Illustrator 29.5.1, SVG Export Plug-In . SVG Version: 2.1.0 Build 141)  -->
  <path d="M82.88,73.94c-.5-.48-.73-1.14-.69-1.83.04-.71.39-1.33.96-1.75l6.29-4.62c1.86-1.38,2.71-3.64,2.25-5.89-.48-2.25-2.17-3.98-4.42-4.48l-18.25-4.11v-23c0-3.12-2.54-5.67-5.67-5.67H23.25c-3.12,0-5.67,2.54-5.67,5.67v40.1c0,3.12,2.54,5.67,5.67,5.67h22.96l4.11,18.25c.52,2.25,2.23,3.94,4.48,4.42,2.25.48,4.52-.38,5.92-2.25l4.62-6.29c.42-.56,1.06-.92,1.75-.96.71-.06,1.36.19,1.86.69l6.64,6.64c1.86,1.86,4.33,2.88,6.98,2.88s5.08-1.02,6.94-2.86c1.86-1.86,2.89-4.33,2.89-6.98s-1.02-5.12-2.88-6.98l-6.65-6.64ZM45.27,69.86h-22.02c-.83,0-1.5-.67-1.5-1.5V28.25c0-.83.67-1.5,1.5-1.5h40.1c.83,0,1.5.67,1.5,1.5v22.02l-16.27-3.67c-1.96-.44-3.98.14-5.39,1.56-1.42,1.42-2,3.44-1.56,5.39l3.64,16.3ZM86.58,91.61c-2.17,2.12-5.92,2.11-8.04-.02l-6.64-6.64c-1.23-1.23-2.89-1.92-4.62-1.92-.14,0-.31,0-.46.02-1.92.12-3.67,1.11-4.81,2.64l-4.62,6.29c-.58.77-1.38.71-1.71.64-.31-.06-1.06-.31-1.29-1.25l-8.71-38.69c-.19-.81.25-1.36.44-1.54s.75-.62,1.54-.44l38.69,8.71c.94.21,1.19.96,1.25,1.29.06.31.14,1.12-.64,1.69l-6.29,4.62c-1.54,1.14-2.5,2.89-2.62,4.81-.14,1.89.56,3.75,1.89,5.08l6.64,6.64c2.25,2.19,2.23,5.82.02,8.05h0Z"/>
</svg>