<?xml version="1.0" encoding="UTF-8"?>
<svg id="Layer_1" xmlns="http://www.w3.org/2000/svg" version="1.1" viewBox="0 0 128 160">
  <!-- Generator: Adobe Illustrator 29.5.1, SVG Export Plug-In . SVG Version: 2.1.0 Build 141)  -->
  <defs>
    <style>
      .st0 {
        fill: #fff;
      }

      .st1 {
        display: none;
      }

      .st2 {
        fill: none;
        stroke: #000;
        stroke-miterlimit: 10;
        stroke-width: .1px;
      }
    </style>
  </defs>
  <g class="st1">
    <g>
      <rect class="st2" width="128" height="128"/>
      <line class="st2" y1="124" x2="128" y2="124"/>
      <line class="st2" y1="120" x2="128" y2="120"/>
      <line class="st2" y1="116" x2="128" y2="116"/>
      <line class="st2" y1="112" x2="128" y2="112"/>
      <line class="st2" y1="108" x2="128" y2="108"/>
      <line class="st2" y1="104" x2="128" y2="104"/>
      <line class="st2" y1="100" x2="128" y2="100"/>
      <line class="st2" y1="96" x2="128" y2="96"/>
      <line class="st2" y1="92" x2="128" y2="92"/>
      <line class="st2" y1="88" x2="128" y2="88"/>
      <line class="st2" y1="84" x2="128" y2="84"/>
      <line class="st2" y1="80" x2="128" y2="80"/>
      <line class="st2" y1="76" x2="128" y2="76"/>
      <line class="st2" y1="72" x2="128" y2="72"/>
      <line class="st2" y1="68" x2="128" y2="68"/>
      <line class="st2" y1="64" x2="128" y2="64"/>
      <line class="st2" y1="60" x2="128" y2="60"/>
      <line class="st2" y1="56" x2="128" y2="56"/>
      <line class="st2" y1="52" x2="128" y2="52"/>
      <line class="st2" y1="48" x2="128" y2="48"/>
      <line class="st2" y1="44" x2="128" y2="44"/>
      <line class="st2" y1="40" x2="128" y2="40"/>
      <line class="st2" y1="36" x2="128" y2="36"/>
      <line class="st2" y1="32" x2="128" y2="32"/>
      <line class="st2" y1="28" x2="128" y2="28"/>
      <line class="st2" y1="24" x2="128" y2="24"/>
      <line class="st2" y1="20" x2="128" y2="20"/>
      <line class="st2" y1="16" x2="128" y2="16"/>
      <line class="st2" y1="12" x2="128" y2="12"/>
      <line class="st2" y1="8" x2="128" y2="8"/>
      <line class="st2" y1="4" x2="128" y2="4"/>
      <line class="st2" x1="124" x2="124" y2="128"/>
      <line class="st2" x1="120" x2="120" y2="128"/>
      <line class="st2" x1="116" x2="116" y2="128"/>
      <line class="st2" x1="112" x2="112" y2="128"/>
      <line class="st2" x1="108" x2="108" y2="128"/>
      <line class="st2" x1="104" x2="104" y2="128"/>
      <line class="st2" x1="100" x2="100" y2="128"/>
      <line class="st2" x1="96" x2="96" y2="128"/>
      <line class="st2" x1="92" x2="92" y2="128"/>
      <line class="st2" x1="88" x2="88" y2="128"/>
      <line class="st2" x1="84" x2="84" y2="128"/>
      <line class="st2" x1="80" x2="80" y2="128"/>
      <line class="st2" x1="76" x2="76" y2="128"/>
      <line class="st2" x1="72" x2="72" y2="128"/>
      <line class="st2" x1="68" x2="68" y2="128"/>
      <line class="st2" x1="64" x2="64" y2="128"/>
      <line class="st2" x1="60" x2="60" y2="128"/>
      <line class="st2" x1="56" x2="56" y2="128"/>
      <line class="st2" x1="52" x2="52" y2="128"/>
      <line class="st2" x1="48" x2="48" y2="128"/>
      <line class="st2" x1="44" x2="44" y2="128"/>
      <line class="st2" x1="40" x2="40" y2="128"/>
      <line class="st2" x1="36" x2="36" y2="128"/>
      <line class="st2" x1="32" x2="32" y2="128"/>
      <line class="st2" x1="28" x2="28" y2="128"/>
      <line class="st2" x1="24" x2="24" y2="128"/>
      <line class="st2" x1="20" x2="20" y2="128"/>
      <line class="st2" x1="16" x2="16" y2="128"/>
      <line class="st2" x1="12" x2="12" y2="128"/>
      <line class="st2" x1="8" x2="8" y2="128"/>
      <line class="st2" x1="4" x2="4" y2="128"/>
    </g>
  </g>
  <g>
    <path class="st0" d="M49.6,35.7c2.1,0,3.9-1.7,3.9-3.9s-1.7-3.8-3.9-3.8-3.9,1.7-3.9,3.9,1.8,3.8,3.9,3.8ZM49.6,31c.5,0,.9.4.9.9s-.4.9-.9.9-.9-.4-.9-.9.5-.9.9-.9Z"/>
    <path class="st0" d="M78.4,35.7c2.1,0,3.9-1.7,3.9-3.9s-1.8-3.8-3.9-3.8-3.9,1.7-3.9,3.9,1.7,3.8,3.9,3.8ZM78.4,31c.5,0,.9.4.9.9s-.4.9-.9.9-.9-.4-.9-.9.4-.9.9-.9Z"/>
    <path class="st0" d="M24.8,52.6c0-2.1-1.7-3.9-3.9-3.9s-3.9,1.7-3.9,3.9,1.7,3.9,3.9,3.9,3.9-1.8,3.9-3.9ZM20,52.6c0-.5.4-.9.9-.9s.9.4.9.9-.4.9-.9.9-.9-.5-.9-.9Z"/>
    <path class="st0" d="M49.6,70.5c-2.1,0-3.9,1.7-3.9,3.9s1.7,3.9,3.9,3.9,3.9-1.7,3.9-3.9-1.7-3.9-3.9-3.9ZM49.6,75.2c-.5,0-.9-.4-.9-.9s.4-.9.9-.9.9.4.9.9-.4.9-.9.9Z"/>
    <path class="st0" d="M111,74.4c0-2.1-1.7-3.9-3.9-3.9s-3.9,1.7-3.9,3.9,1.7,3.9,3.9,3.9,3.9-1.8,3.9-3.9ZM106.2,74.4c0-.5.4-.9.9-.9s.9.4.9.9-.4.9-.9.9-.9-.5-.9-.9Z"/>
    <path class="st0" d="M17,96.2c0,2.1,1.7,3.9,3.9,3.9s3.9-1.7,3.9-3.9-1.7-3.9-3.9-3.9-3.9,1.7-3.9,3.9ZM21.8,96.2c0,.5-.4.9-.9.9s-.9-.5-.9-.9.4-.9.9-.9.9.4.9.9Z"/>
    <path class="st0" d="M74.5,96.2c0,2.1,1.7,3.9,3.9,3.9s3.9-1.7,3.9-3.9-1.7-3.9-3.9-3.9-3.9,1.7-3.9,3.9ZM79.2,96.2c0,.5-.4.9-.9.9s-.9-.4-.9-.9.4-.9.9-.9.9.4.9.9Z"/>
    <path class="st0" d="M14.5,74.4c0,3.5,2.9,6.4,6.4,6.4,1.5,0,2.9-.5,4.1-1.4l18.8,14.3c-.3.8-.5,1.7-.5,2.6,0,3.5,2.9,6.4,6.4,6.4s6.4-2.9,6.4-6.4-2.9-6.4-6.4-6.4c-1.5,0-3,.5-4.1,1.5l-18.8-14.5c.3-.8.5-1.7.5-2.6s-.2-1.8-.5-2.6l20.9-15.9c.6.3,1.2.5,1.9.5,1.6,0,3-1,3.6-2.4h18.9c.7,2.8,3.2,4.9,6.2,4.9s5.5-2.1,6.2-4.9h16.3c.7,2.8,3.2,4.9,6.2,4.9,3.5,0,6.4-2.9,6.4-6.4,0-3-2.1-5.5-4.9-6.2v-8.1c2.8-.7,4.9-3.2,4.9-6.2,0-3.5-2.9-6.4-6.4-6.4s-6.4,2.9-6.4,6.4c0,.7.1,1.3.3,1.9l-18.4,13.8c-1.1-.9-2.5-1.5-4.1-1.5-3,0-5.5,2.1-6.2,4.9h-19c-.6-1.4-2-2.4-3.6-2.4-.7,0-1.4.2-2,.6l-20.8-15c.3-.7.5-1.6.5-2.4,0-3.5-2.9-6.4-6.4-6.4s-6.4,2.9-6.4,6.4,2.9,6.4,6.4,6.4c1.6,0,3.1-.6,4.2-1.6l20.8,15c-.1.3-.1.6-.1.9s.1.6.1,1l-20.9,15.9c-1.1-.9-2.5-1.4-4.1-1.4-3.5,0-6.4,2.8-6.4,6.4ZM50.3,96.7c-.2.2-.4.4-.7.4-.1,0-.2,0-.3-.1l1-.3ZM102.6,36.5c.8.8,1.9,1.4,3,1.7v8.1c-2.3.6-4.2,2.4-4.7,4.7h-16.3c-.1-.3-.2-.7-.3-1l18.3-13.5ZM20.1,31.7c0-.3.2-.5.5-.7l-.5.7Z"/>
    <path class="st0" d="M100.7,96.2c0,3.5,2.9,6.4,6.4,6.4s6.4-2.9,6.4-6.4-2.9-6.4-6.4-6.4-6.4,2.8-6.4,6.4ZM107.1,95.3c.5,0,.9.4.9.9s-.4.9-.9.9-.9-.4-.9-.9.4-.9.9-.9Z"/>
    <path class="st0" d="M83.9,74.4c0-3.1-2.5-5.6-5.6-5.6s-5.6,2.5-5.6,5.6,2.5,5.6,5.6,5.6,5.6-2.6,5.6-5.6ZM78.4,75.2c-.5,0-.9-.4-.9-.9s.4-.9.9-.9.9.4.9.9c-.1.5-.5.9-.9.9Z"/>
  </g>
</svg>